<svg width="3955" height="555" viewBox="0 0 3955 555" fill="none" xmlns="http://www.w3.org/2000/svg">
<path d="M473.458 23.4977L401.647 95.3093C370.456 126.5 319.784 126.5 288.593 95.3093L218.129 24.8449C186.627 -6.65682 135.54 -6.34597 104.453 25.4666L101.344 28.6789C-33.7815 167.017 -33.7815 388.047 101.344 526.386L104.453 529.598C135.54 561.41 186.731 561.721 218.129 530.22L288.593 459.755C319.784 428.564 370.456 428.564 401.647 459.755L473.458 531.567C504.442 562.55 554.596 562.861 585.891 532.188C728.892 392.503 728.892 162.458 585.891 22.7725C554.596 -7.79665 504.442 -7.58943 473.458 23.3942V23.4977Z" fill="white"/>
<path d="M1245.67 91.7861L1163.28 329.914L1064.43 91.7861H901.737L875.727 462.864H987.537L1004.84 225.046L1103.08 462.864H1210.23L1298.31 216.653L1322.04 462.864H1442.34L1409.49 91.7861H1245.67Z" fill="white"/>
<path d="M1888.96 137.381C1867.93 120.386 1842.64 107.433 1813.21 98.418C1783.68 89.4028 1750.63 84.9469 1713.84 84.9469C1664.41 84.9469 1621.82 92.8223 1586.07 108.573C1550.42 124.324 1523.17 146.603 1504.41 175.618C1485.66 204.633 1476.33 238.31 1476.33 276.859C1476.33 306.184 1481.72 332.712 1492.5 356.338C1503.27 380.068 1519.03 400.379 1539.65 417.58C1560.37 434.678 1585.34 447.838 1614.67 456.75C1644 465.765 1677.36 470.221 1714.87 470.221C1763.68 470.221 1805.96 462.242 1841.81 446.388C1877.67 430.533 1905.03 408.047 1923.99 379.032C1942.85 350.017 1952.38 315.925 1952.38 276.755C1952.38 247.74 1947.1 221.523 1936.53 198.001C1925.96 174.478 1910.1 154.271 1889.07 137.277L1888.96 137.381ZM1811.76 328.774C1802.96 343.282 1790.11 354.162 1773.32 361.416C1756.53 368.67 1736.64 372.297 1713.74 372.297C1697.16 372.297 1682.03 370.224 1668.45 366.182C1654.88 362.141 1642.96 355.924 1632.91 347.634C1622.86 339.344 1615.4 329.292 1610.63 317.376C1605.86 305.562 1603.48 292.195 1603.48 277.377C1603.48 257.585 1607.93 240.487 1616.74 226.186C1625.55 211.886 1638.3 201.006 1654.88 193.545C1671.46 186.084 1691.15 182.457 1713.74 182.457C1731.04 182.457 1746.58 184.53 1760.37 188.571C1774.15 192.612 1785.86 198.933 1795.6 207.43C1805.34 215.928 1812.59 225.979 1817.57 237.689C1822.54 249.398 1825.03 262.559 1825.03 277.48C1825.03 297.273 1820.57 314.371 1811.76 328.878V328.774Z" fill="white"/>
<path d="M2321.39 317.479C2318.17 328.049 2312.89 337.271 2305.74 344.94C2296.52 354.577 2284.81 361.727 2270.51 366.39C2256.21 371.053 2240.35 373.333 2222.53 373.333C2204.71 373.333 2189.37 371.053 2175.69 366.39C2162.01 361.727 2150.61 355.302 2141.08 346.805C2131.86 338.308 2124.71 328.153 2119.84 316.65C2115.28 304.941 2112.69 291.78 2112.69 276.755C2112.69 257.895 2117.04 241.212 2125.33 227.015C2133.83 212.923 2146.26 201.938 2162.95 193.545C2179.32 185.462 2199.11 181.317 2222.43 181.317C2240.15 181.317 2255.9 183.804 2269.89 188.675C2283.98 193.234 2295.48 201.109 2304.91 211.99C2312.47 220.798 2318.49 231.782 2322.63 244.942H2448.95C2445.01 212.197 2433.92 184.322 2415.48 161.525C2395.68 136.655 2368.64 117.692 2335.06 104.635C2301.18 91.4751 2262.74 85.0504 2219.11 85.0504C2183.88 85.0504 2151.75 89.4027 2122.95 98.2107C2094.14 107.226 2069.48 120.075 2048.96 137.173C2028.44 154.479 2012.79 174.789 2001.5 198.208C1990.41 221.731 1984.92 247.947 1984.92 276.859C1984.92 305.77 1990.41 332.919 2001.29 356.338C2012.38 380.068 2028.03 400.378 2048.75 417.373C2069.48 434.16 2094.14 447.32 2123.15 456.543C2152.17 465.765 2184.71 470.325 2220.66 470.325C2252.48 470.325 2281.7 467.113 2308.54 460.688C2335.27 454.47 2358.28 444.315 2378.17 430.74C2398.07 417.166 2413.92 400.275 2425.63 380.068C2435.99 362.038 2443.14 341.106 2446.36 317.583H2321.18L2321.39 317.479Z" fill="white"/>
<path d="M2821.58 91.7861H2468.53V190.954H2584.07V462.864H2707.08V190.954H2821.58V91.7861Z" fill="white"/>
<path d="M2942.92 91.7861L2785.52 462.864H2907.38L2934.63 393.436H3094.63L3120.43 462.864H3249.24L3087.06 91.7861H2942.92ZM3015.56 177.69L3064.99 311.262H2965.2L3015.67 177.69H3015.56Z" fill="white"/>
<path d="M3406.12 91.7861H3283.23V462.864H3584.77V362.659H3406.12V91.7861Z" fill="white"/>
<path d="M3954.19 181.421V91.7861H3630.37V462.864H3954.19V373.229H3750.16V314.474H3937.82V239.139H3750.16V181.421H3954.19Z" fill="white"/>
</svg>
